<svg xmlns="http://www.w3.org/2000/svg" viewBox="0 0 1000 1000"  fill="#e82344">
<g>
	<path d="M599.411,662.582c26.857-20.589,36.447-47.958,35.948-80.907c-0.641-42.256,0.012-84.54,0.472-126.794
		c0.361-33.266,3.278-73.88-16.961-102.655c-19.664-27.96-55.669-39.147-87.704-27.07c-34.521,13.014-47.767,45.835-61.885,77.051
		c-6.533,14.446-13.847,44.851-28.988,52.101c-15.78,7.556-44.537,2.79-61.851,3.083c-30.377,0.515-65.243,4.04-71.92,40.35
		c-5.974,32.49,18.922,59.494,51.206,59.492c26.5-0.128,52.997-0.649,79.49-1.229c23.341-0.51,56.931,5.003,74.544-14.235
		c17.505-19.12,27.018-52.252,37.59-75.717c5.95-13.207,11.796-26.46,17.616-39.725c4.098-9.343-6.288-22.06-15.946-18.691
		c-20.075,7-28.885,45.968-36.997,63.738c-8.421,18.444-15.228,53.606-40.446,53.879c-30.101,0.327-60.195,1.059-90.293,1.601
		c-15.552,0.281-46.676,5.17-47.435-18.62c-1.471-45.986,113.625-2.401,132.838-32.297c14.494-22.551,23.433-51.088,34.668-75.468
		c7.069-15.347,13.875-31.511,28.077-41.722c15.404-11.075,36.547-10.339,52.289-0.168c19.322,12.485,21.57,35.758,21.571,56.73
		c0,28.822-0.12,57.645-0.146,86.468c-0.026,31.279,3.674,64.709-0.176,95.74c-3.031,24.442-19.226,37.632-37.643,51.708
		c-24.665,18.853-51.639,36.661-74.744,57.354c-18.679,16.729-19.498,48.039-24.546,70.979
		c-6.587,29.931-13.341,59.824-20.14,89.708c-4.613,20.274-16.654,41.394-41.146,31.981c-24.86-9.554-15.354-39.489-11.135-58.649
		c6.186-28.094,12.32-56.199,18.735-84.242c6.033-26.372,8.226-60.659,27.727-81.078c18.752-19.634,43.35-34.969,64.984-51.225
		c7.01-5.268,19.883-11.945,21.094-21.798c1.81-14.705-14.722-19.751-24.835-13.021c-43.478,28.935-94.525,60.866-107.535,113.881
		c-7.035,28.666-13.527,57.463-19.859,86.291c-5.811,26.455-16.441,55.962-16.372,83.181c0.117,45.796,52.646,76.656,91.33,48.415
		c19.645-14.342,24.13-36.837,29.129-59.16c6.117-27.319,12.093-54.669,18.377-81.95c3.032-13.162,4.708-28.361,10.261-40.721
		c5.539-12.33,17.203-19.847,27.45-27.951C556.98,694.71,578.291,678.769,599.411,662.582
		C624.318,643.488,592.99,667.503,599.411,662.582z"/>
	<path d="M429.295,605.704c1.377-10.758-1.995-21.58-3.242-32.215c-6.119,1.265-16.76,0.018-21.476,4.563
		c-7.432,7.164-4.124,9.825-16.583,9.813c-36.531-0.041-73.062-0.074-109.593-0.107c-26.495-0.024-52.99-0.044-79.485-0.064V351.121
		H400.77c-0.011,18.789-1.486,38.185,0.146,56.908c1.217,13.96,21.542,20.748,28.056,6.441c6.288-13.812,1.684-36.852,1.723-51.453
		c0.053-19.213,4.048-42.693-22.109-42.693c-45.233-3.341-92.087,0.269-137.47,0.221c-24.735-0.026-49.47-0.084-74.205-0.171
		c-22.303-0.078-29.543,6.634-29.468,29.409c0.163,49.496,0.237,98.993,0.191,148.489c-0.021,23.327-0.069,46.653-0.146,69.979
		c-0.054,16.281-6.354,46.393,16.626,49.373c17.592,2.282,36.629,0.038,54.343,0.038c24.563,0,49.125,0.078,73.688,0.113
		c23.276,0.032,46.552,0.14,69.828-0.016C392.109,617.692,427.163,622.38,429.295,605.704
		C430.171,598.859,428.469,612.167,429.295,605.704z"/>
	<path d="M812.512,832.52c-0.924-24.159-16.996-39.68-36.352-51.568c-26.183-16.081-52.111-32.584-78.601-48.161
		c-17.597-10.348-39.4-20.073-46.658-40.846c-2.033-5.817-1.167-17.022-7.674-20.506c-9.401-5.026-21.904-5.902-24.518,7.168
		c-1.6,7.998,4.589,22.937,7.117,30.916c3.15,9.939,8.438,18.896,16.898,25.215c25.193,18.818,55.236,33.232,82,49.86
		c16.759,10.414,50.127,22.71,56.531,43.131c7.387,23.557-16.304,42.705-38.175,34.165c-26.354-10.29-51.442-30.77-75.523-45.578
		c-21.404-13.164-44.011-25.041-64.675-39.361c-8.419-5.834-16.313-12.739-21.589-21.637c-3.631-6.122-4.196-23.445-10.188-26.58
		c-27.15-14.2-26.736,10.48-20.561,30.994c7.35,24.412,23.753,34.225,44.321,47.161c27.256,17.145,54.517,34.286,82.077,50.938
		c22.418,13.545,50.489,37.241,77.75,37.241c26.621,0,49.257-20.336,55.728-45.489C811.854,844.018,812.545,838.264,812.512,832.52z
		"/>
	<path d="M525.907,319.361c50.064,0.008,93.062-39.708,96.529-89.751c3.661-52.817-37.728-99.819-90.569-103.004
		c-53.01-3.195-99.507,38.048-102.337,91.146C426.611,272.513,471.064,319.361,525.907,319.361z M592.52,223.738
		c-0.547,36.116-30.427,65.499-66.605,65.499c-36.658,0.017-66.87-30.485-66.472-67.145c0.387-35.763,30.656-65.537,66.382-65.537
		C562.232,156.541,593.08,187.184,592.52,223.738C591.973,259.854,592.79,206.082,592.52,223.738z M525.907,315.361L525.907,315.361
		L525.907,315.361L525.907,315.361z"/>
</g>
</svg>
