<svg xmlns="http://www.w3.org/2000/svg" viewBox="0 0 1000 1000"  fill="#e82344">
<path d="M989.938,251.168c-0.99,8.402-1.762,16.836-3.008,25.2
	c-7.568,50.805-24.956,97.327-60.729,135.399c-21.86,23.263-47.943,39.546-79.981,44.875c-6.222,1.035-12.532,1.538-19.073,2.319
	c-0.122,1.675-0.281,3.126-0.325,4.581c-0.568,18.987-1.025,37.978-1.698,56.961c-1.118,31.517-11.793,58.979-34.26,81.661
	c-22.616,22.828-44.674,46.213-67.344,68.988c-98.163,98.615-196.454,197.104-294.743,295.594c-1.721,1.725-3.839,3.188-6.012,4.307
	c-17.08,8.791-34.544,16.514-53.98,18.436c-0.272,0.027-0.513,0.385-0.769,0.588c-7.666,0-15.332,0-22.997,0
	c-1.259-0.332-2.501-0.775-3.78-0.979c-22.313-3.51-43.031-10.869-59.608-26.799c-31.475-30.248-62.983-60.475-93.826-91.361
	c-49.097-49.17-97.625-98.906-146.476-148.32c-11.704-11.84-20.476-25.439-25.169-41.381c-2.611-8.869-4.103-18.068-6.099-27.119
	c0-6.998,0-13.998,0-20.996c0.817-4.373,1.622-8.748,2.452-13.117c3.056-16.064,10.307-30.504,17.521-44.945
	c0.646-1.295,1.782-2.391,2.832-3.436C144.99,459.91,257.04,348.123,369.368,236.617c14.985-14.876,30.627-29.318,47.352-42.153
	c16.278-12.492,35.405-19.342,56.488-19.428c63.306-0.257,126.612-0.723,189.919-0.847c5.48-0.011,7.706-1.454,8.888-6.927
	c7.139-33.089,19.965-63.787,40.247-91.061c17.623-23.697,38.185-44.445,65.997-55.744c51.777-21.034,98.063-9.862,138.35,27.225
	c35.738,32.9,56.105,74.756,66.193,121.752c3.063,14.271,4.261,28.942,6.33,43.429c0.205,1.445,0.535,2.873,0.807,4.309
	C989.938,228.505,989.938,239.836,989.938,251.168z M706.114,212.053c-0.347,1.13-0.749,1.9-0.802,2.694
	c-0.767,11.626-1.162,23.289-2.346,34.872c-0.665,6.506,1.801,9.489,7.546,12.298c28.109,13.743,40.868,47.187,29.667,76.377
	c-10.892,28.386-43.003,44.497-72.861,35.558c-46.468-13.911-52.312-63.312-34.723-89.407c6.903-10.242,15.537-18.786,27.11-23.642
	c4.256-1.786,5.404-4.263,5.279-8.684c-0.325-11.488-0.094-22.991-0.113-34.488c-0.003-1.607-0.165-3.215-0.264-5.008
	c-1.345-0.107-2.314-0.258-3.281-0.25c-58.81,0.505-117.617,1.124-176.429,1.453c-11.04,0.062-21.438,2.131-31.547,6.368
	c-14.314,5.999-27.419,13.205-38.635,24.694c-38.986,39.94-78.897,78.976-118.258,118.554
	C221.5,438.816,146.644,514.291,71.877,589.857c-5.092,5.146-9.96,10.906-13.418,17.213c-12.365,22.551-13.926,61.625,11.199,86.684
	c34.798,34.705,68.674,70.334,103.39,105.121c42.25,42.338,84.953,84.225,127.483,126.281c10.059,9.947,21.024,18.465,35.264,21.635
	c25.937,5.775,49.934,3.4,70.175-16.043c11.051-10.615,22.772-20.543,33.624-31.354c85.347-85.016,170.661-170.066,255.742-255.35
	c23.881-23.936,47.223-48.428,70.284-73.156c11.54-12.373,17.725-27.676,19.142-44.631c0.722-8.625,1.181-17.297,1.216-25.951
	c0.291-74.312,0.086-148.628,0.974-222.932c0.182-15.217-4.976-27.448-12.959-39.278c-6.024-8.926-14.288-15.249-24.224-19.4
	C735.764,212.844,720.953,212.648,706.114,212.053z M711.917,173.155c5.273,0.352,10.045,0.937,14.815,0.942
	c23.063,0.022,43.487,7.33,61.171,22.073c19.605,16.345,33.24,36.546,36.465,62.233c1.694,13.492,1.273,27.273,1.448,40.928
	c0.486,37.647,0.76,75.297,1.178,112.946c0.077,6.924,0.724,7.342,7.665,6.277c33.186-5.094,58.189-23.069,76.639-50.245
	c23.324-34.361,35.536-72.574,37.805-114.134c2.539-46.532-3.017-91.393-25.09-133.216c-13.148-24.913-30.122-46.424-55.328-60.123
	c-21.974-11.942-45.232-14.376-69.012-6.404c-16.733,5.61-30.589,16.02-42.591,28.859c-22.882,24.478-35.853,54.148-44.799,85.902
	C712.022,170.12,712.092,171.14,711.917,173.155z M683.381,295.167c-11.102-0.094-19.946,8.984-19.982,20.509
	c-0.033,10.904,9.987,21.491,20.274,21.42c10.382-0.072,21.079-10.464,21.322-20.713
	C705.25,305.579,694.741,295.264,683.381,295.167z"/>
<path d="M511.33,460.067c3.763-3.214,7.308-6.501,11.118-9.442
	c7.404-5.714,16.676-5.543,23.967,0.204c6.697,5.278,9.021,14.273,4.925,22.517c-2.175,4.375-5.548,8.252-8.846,11.937
	c-2.126,2.375-2.369,4.053-0.86,6.882c8.08,15.156,15.614,30.568,17.902,47.89c2.793,21.162-0.346,40.857-14.773,57.611
	c-7.241,8.408-18.876,10.514-26.676,4.92c-9.42-6.756-11.578-17.111-4.731-27.732c7.748-12.023,8.097-24.67,5.129-37.928
	c-2.357-10.532-7.949-19.346-15.018-27.264c-12.365-13.85-25.728-26.365-45.206-29.007c-9.74-1.322-19.771-2.471-28.58,3.486
	c-11.868,8.027-15.393,19.437-11.13,35.303c3.81,14.182,11.874,26.284,19.187,38.782c8.813,15.061,17.891,30.035,25.538,45.691
	c7.597,15.553,11.697,32.24,8.954,49.879c-4.452,28.633-30.737,52.539-59.749,55.389c-22.806,2.242-43.518-3.125-63.135-14.383
	c-9.875-5.666-10.005-5.439-18.465,1.887c-10.714,9.277-21.252,9.348-29.526,0.193c-5.627-6.227-6.788-13.346-2.751-20.721
	c1.974-3.605,4.6-6.957,7.415-9.971c3.488-3.732,3.936-6.928,1.054-11.455c-8.485-13.328-14.235-27.822-16.527-43.539
	c-3.089-21.178,0.867-40.807,13.624-58.234c8.361-11.422,23.385-12.072,32.305-1.771c3.52,4.065,5.092,8.69,3.564,13.874
	c-1.213,4.119-2.515,8.391-4.744,11.996c-7.179,11.609-7.251,23.922-3.126,36.105c10.225,30.197,30.593,49.967,62.273,56.369
	c13.188,2.666,25.498,0.447,34.066-11.988c5.521-8.016,4.431-16.529,2.943-25.029c-2.612-14.932-10.601-27.525-18.603-40.012
	c-10.511-16.4-21.281-32.641-28.416-50.918c-6.5-16.65-9.312-33.734-4.94-51.352c6.725-27.107,30.204-46.877,58.388-50.207
	c18.187-2.148,35.048,2.022,51.371,9.391C496.67,452.77,503.924,456.482,511.33,460.067z"/>
</svg>
