<svg xmlns="http://www.w3.org/2000/svg" viewBox="0 0 1000 1000"  fill="#e82344">
<path  d="M841.315,830.627c-138.717,0.008-277.435-0.011-416.151-0.026c-50.46-0.006-100.92-0.004-151.38-0.026
	c-22.729-0.01-57.189-5.32-48.763-38.232C232.047,764.896,263.302,769,284.962,769c68.67,0,137.408-0.855,206.071,0.096
	c55.441,0.757,92.583-63.466,41.099-101.378c-32.168-23.689-102.361-9.702-141.279-9.735c-29.949-0.025-59.899-0.075-89.849-0.055
	C265.332,657.952,229.66,658,193.987,658c-61.233-4.072-62.614-64.441,1.494-64.508c97.517-0.102,195.033-0.011,292.55-0.003
	c50.831,0.004,135.467,18.097,160.609-41.738c31.017-73.813-45.63-95.86-100.298-95.751c-61.771,0.123-123.542-0.27-185.313-0.27
	c-10.995,1.429-37.871-1.726-27.82,21.247c8.869,20.281,77.438,9.134,95.745,9.134c27.388-0.001,54.776,0.036,82.164-0.002
	c23.654-0.033,47.31-0.14,70.962,0.164c35.273,0.451,54.65,44.887,25.503,68.107c-20.164,16.064-59.36,8.405-83.371,8.433
	c-33.479,0.039-66.957,0.062-100.436,0.067c-77.62,0.014-155.24,0.119-232.86,0.119c-47.197,1.952-98.104,32.584-73.302,88.272
	c22.127,49.683,85.869,37.18,129.944,37.184c71.116,0.007,142.232,0.026,213.348,0.009c20.456-0.004,75.494-5.162,61.333,33.791
	c-5.805,15.969-21.55,16.147-35.554,16.148c-45.356,0.001-90.713,0.001-136.07,0.005c-50.784,0.004-152.945-19.258-158.801,56.956
	c-6.458,84.045,101.006,68.233,152.634,68.785c91.813,0.98,183.602,1.85,275.418,1.85c46.772,0,93.544,0,140.315,0
	c9.232,0,18.492,0.204,27.724,0c17.98,0,35.856-2.313,53.831-2.461C865.868,863.36,861.431,830.627,841.315,830.627z"/>
<path  d="M989.75,534.658c-16.63-80.943-102.959-129.769-180.926-102.424c-36.765,12.895-67.602,42.815-81.724,79.148
	c-17.709,45.558-5.616,87.585,14.63,129.966c18.554,38.84,41.056,75.797,64.782,111.659c10.743,16.238,24.29,46.612,41.252,56.896
	c16.56,10.04,30.794-20.267,37.646-30.182c25.626-37.088,49.84-75.218,70.929-115.087
	C977.288,625.031,999.204,580.667,989.75,534.658C976.608,470.694,994.52,557.87,989.75,534.658z M951.827,602.485
	c-24.103,60.183-61.888,113.252-96.896,167.38c-29.737-42.994-58.588-87.259-81.735-134.219
	c-24.805-50.321-38.405-103.812,5.523-148.636C860.83,403.226,994.038,497.087,951.827,602.485
	C941.033,629.438,961.46,578.433,951.827,602.485z"/>
<path  d="M855.428,485h-0.186c-42.524,0-77.2,34.28-77.297,76.516c-0.048,20.622,7.93,40.1,22.464,54.686
	C814.979,630.822,834.408,639,855.118,639h0.091c0.002,0,0.004,0,0.007,0c20.315,0,39.534-8.121,54.116-22.636
	c14.587-14.519,22.635-33.653,22.661-53.911C932.05,519.836,897.703,485,855.428,485z M808.627,561.685
	c-0.006-25.508,20.766-46.278,46.431-46.303L855,513.383l0,0v1.999c13,0,24,4.845,32.687,13.643
	c8.693,8.805,13.532,20.537,13.53,33.036c-0.006,25.441-20.704,46.141-46.25,46.141C829.407,608.16,808.634,587.293,808.627,561.685
	z M855.209,636.742L855.209,636.742v0.002V636.742z"/>
<path  d="M378.105,251.818c-11.641-56.66-72.072-90.838-126.649-71.697c-25.735,9.026-47.321,29.971-57.207,55.404
	c-12.396,31.891-3.931,61.31,10.241,90.977c12.988,27.188,28.739,53.058,45.348,78.162c7.521,11.367,17.003,32.629,28.876,39.827
	c11.592,7.028,21.556-14.187,26.352-21.127c17.938-25.961,34.888-52.653,49.65-80.561
	C369.381,315.08,384.723,284.025,378.105,251.818C368.906,207.043,381.443,268.067,378.105,251.818z M351.559,299.298
	c-16.872,42.128-43.322,79.276-67.828,117.167c-20.816-30.096-41.012-61.082-57.215-93.954
	c-17.363-35.225-26.884-72.668,3.867-104.046C287.86,159.815,381.106,225.519,351.559,299.298
	C344.003,318.164,358.302,282.46,351.559,299.298z"/>
<path  d="M284.079,217h-0.13c-29.767,0-54.041,24.025-54.108,53.59c-0.034,14.436,5.551,28.155,15.725,38.365
	C255.765,319.19,269.365,325,283.862,325h0.063c0.001,0,0.003,0,0.005,0c14.221,0,27.674-5.756,37.882-15.916
	c10.211-10.163,15.844-23.622,15.863-37.802C337.714,241.449,313.671,217,284.079,217z M251.318,270.737
	c-0.004-17.855,14.647-32.395,32.613-32.412l0.069-1.399l0,0v1.399c9,0,16.69,3.392,22.771,9.55
	c6.085,6.164,9.417,14.376,9.416,23.125c-0.004,17.809-14.521,32.299-32.403,32.299C265.892,303.27,251.323,288.663,251.318,270.737
	z M283.925,323.277L283.925,323.277v0.001V323.277z"/>
</svg>
