<?xml version="1.0" encoding="utf-8"?>
<!-- Generator: Adobe Illustrator 16.0.0, SVG Export Plug-In . SVG Version: 6.00 Build 0)  -->
<!DOCTYPE svg PUBLIC "-//W3C//DTD SVG 1.1//EN" "http://www.w3.org/Graphics/SVG/1.1/DTD/svg11.dtd">
<svg version="1.1" id="Layer_1" xmlns="http://www.w3.org/2000/svg" xmlns:xlink="http://www.w3.org/1999/xlink" x="0px" y="0px"
	 width="1000px" height="1000px" viewBox="0 0 1000 1000" enable-background="new 0 0 1000 1000" xml:space="preserve">
<g>
	<path d="M810.314,827.127l-68.288,0.002c-102.291,0-204.573-0.012-306.861-0.023l-78.979-0.009c-37.8-0.002-75.6-0.006-113.4-0.021
		c-21.025-0.009-36.161-4.598-42.618-12.92c-4.107-5.294-5.009-12.145-2.756-20.944c4.446-17.369,19.398-20.929,40.479-20.929
		c2.84,0,5.678,0.058,8.422,0.113c2.67,0.054,5.191,0.104,7.648,0.104c22.072,0,44.518-0.09,66.226-0.177
		c21.707-0.087,44.154-0.177,66.225-0.177c28.095,0,51.473,0.143,73.573,0.449c0.337,0.004,0.684,0.007,1.02,0.007
		c29.889,0,56.817-18.43,65.485-44.818c7.575-23.063-1.129-46.57-23.283-62.885c-13.422-9.884-33.653-14.487-63.667-14.487
		c-15.351,0-31.527,1.206-45.8,2.271c-12.411,0.926-24.133,1.8-33.751,1.8l-23.578-0.023c-17.428-0.019-34.857-0.037-52.285-0.037
		l-49.295,0.034c-23.908,0.021-47.816,0.043-71.725,0.043c-28.739-1.949-43.317-17.001-42.863-30.882
		c0.433-13.23,14.281-26.595,44.243-26.626c68.071-0.072,136.156-0.049,204.218-0.025c29.441,0.01,58.883,0.021,88.328,0.022
		c8.96,0.001,19.022,0.572,29.675,1.177c12.085,0.687,24.583,1.396,37.209,1.396c36.051,0,79.649-5.28,96.95-46.455
		c10.32-24.559,9.901-45.517-1.244-62.292c-18.772-28.25-64.934-38.315-101.875-38.315l-0.412,0
		c-8.364,0.017-16.729,0.024-25.093,0.024c-26.698,0-53.845-0.075-80.098-0.147c-26.257-0.072-53.409-0.146-80.115-0.146
		l-0.451,0.029c-1.639,0.213-3.791,0.322-6.07,0.438c-9.139,0.464-20.512,1.042-25.145,8.535
		c-2.667,4.313-2.452,10.082,0.639,17.146c4.263,9.749,18.447,14.289,44.639,14.289c12.935,0,26.514-1.102,37.426-1.987
		c7.074-0.574,13.184-1.069,16.888-1.069h1.1c8.843,0,17.686,0.004,26.528,0.008c18.182,0.009,36.36,0.016,54.541-0.01l10.829-0.019
		c7.157-0.014,14.314-0.027,21.469-0.027c15.464,0,27.373,0.065,38.614,0.209c17.878,0.229,30.125,12.726,34.332,25.01
		c4.738,13.836,0.64,27.614-10.965,36.859c-8.11,6.461-20.566,9.471-39.2,9.472c-7.795,0-15.631-0.496-23.209-0.976
		c-6.709-0.424-13.046-0.825-18.648-0.825h-0.137c-33.478,0.038-66.955,0.062-100.432,0.066c-35.88,0.007-71.76,0.033-107.64,0.059
		c-41.74,0.03-83.479,0.061-125.22,0.061l-0.145,0.003c-32.873,1.359-62.455,15.686-75.365,36.498
		c-9.993,16.108-10.334,35.713-0.99,56.695c15.957,35.828,51.704,40.658,84.568,40.658c8.783,0,17.553-0.375,26.033-0.737
		c7.953-0.34,15.465-0.661,22.539-0.661l54.287,0.007c53.026,0.008,106.042,0.015,159.062,0.002c1.963,0,4.259-0.048,6.688-0.098
		c2.957-0.062,6.308-0.131,9.778-0.131c14.464,0,34.477,1.119,41.253,10.795c3.127,4.464,3.233,10.524,0.323,18.529
		c-4.671,12.849-16.32,13.843-32.266,13.844L321.6,734.908c-7.795,0-16.946-0.465-26.635-0.958
		c-11.16-0.567-23.808-1.211-36.279-1.211c-28.732,0-49.412,3.469-65.078,10.916c-20.889,9.929-32.424,27.236-34.284,51.44
		c-1.545,20.109,3.203,36.278,14.112,48.058c20.801,22.462,60.445,25.342,92.659,25.342c9.097,0,17.842-0.24,26.299-0.473
		c8.386-0.23,16.208-0.446,23.017-0.373c87.731,0.936,181.267,1.85,275.455,1.85h140.314c3.067,0,6.139,0.022,9.211,0.045
		c3.092,0.023,6.184,0.046,9.274,0.046c3.481,0,6.529-0.03,9.239-0.091c9.404,0,18.878-0.631,28.04-1.242
		c8.472-0.564,17.231-1.148,25.819-1.219c12.627-0.102,18.243-9.183,18.207-18.137C830.929,838.198,823.19,827.127,810.314,827.127z
		"/>
	<path d="M963.472,541.523l0.148-0.028l-0.592-3.396l-0.021-0.106h0.001l-5.452-26.531c-0.018-0.087-0.035-0.175-0.054-0.264
		c-0.145-0.702-0.229-1.117-0.238-1.158l-0.042,0.009c-0.43-1.439-1.247-2.813-3.388-2.813h-0.058
		c-9.172-21.332-23.664-40.319-42.265-55.013c-25.411-20.073-56.98-31.128-88.894-31.128c-15.665,0-31.127,2.637-45.953,7.837
		c-37.899,13.292-69.236,43.641-83.829,81.182c-19.244,49.509-3.35,94.885,14.735,132.743
		c16.181,33.873,36.842,69.487,65.021,112.081c2.76,4.172,5.76,9.386,8.937,14.906c9.44,16.406,20.141,35.001,33.42,43.053
		c2.756,1.67,5.639,2.518,8.569,2.518c0,0,0.001,0,0.002,0c13.08,0,23.316-16.773,30.09-27.872c1.423-2.331,2.651-4.345,3.68-5.832
		c28.932-41.872,52.202-79.633,71.143-115.439C950.274,624.98,969.314,584.32,963.472,541.523z M917.661,600.977l-0.229,0.571
		c-20.137,50.14-50.354,96.135-79.576,140.614c-4.608,7.015-9.349,14.229-14.016,21.41c-26.01-37.754-55.243-82.281-78.504-129.474
		c-21.326-43.261-40.043-98.797,4.883-144.639c20.024-20.433,44.469-31.233,70.689-31.233c33.787,0,67.101,18.174,86.938,47.43
		C927.256,534.279,930.741,568.132,917.661,600.977z"/>
	<path d="M824.428,481.5h-0.186c-44.45,0-80.696,35.892-80.797,80.008c-0.05,21.614,8.29,41.916,23.484,57.165
		c15.313,15.365,35.622,23.827,57.279,23.827h0.007c21.165,0,41.261-8.401,56.585-23.655c15.251-15.18,23.665-35.205,23.692-56.387
		c0.029-21.719-8.399-42.136-23.733-57.49C865.646,489.834,845.641,481.5,824.428,481.5z M824.044,518.882
		c11.762,0.011,21.907,4.251,30.153,12.603c8.075,8.18,12.521,19.038,12.52,30.575c-0.006,23.514-19.183,42.643-42.744,42.643
		c-23.619-0.039-42.84-19.337-42.846-43.019C781.121,538.114,800.374,518.915,824.044,518.882z M824.03,516.389l0.008-0.707
		l0.001,2.056L824.03,516.389z"/>
	<path d="M215.919,406.595c1.915,2.894,4.007,6.531,6.223,10.381c6.671,11.593,14.232,24.733,23.758,30.508
		c2.095,1.27,4.296,1.914,6.542,1.915c0,0,0,0,0.001,0c9.746,0,17.097-12.044,21.961-20.015c0.987-1.617,1.839-3.014,2.542-4.03
		c20.275-29.344,36.586-55.811,49.864-80.915c15.801-29.87,29.518-59.288,24.254-90.491l0.05-0.01l-0.478-2.324
		c-0.033-0.165-0.068-0.332-0.103-0.5l-3.146-15.317c-0.019-0.09-0.038-0.182-0.057-0.275c-0.141-0.687-0.227-1.104-0.235-1.145
		l-0.042,0.009c-0.38-1.273-1.063-2.495-2.696-2.761c-15.662-35.897-51.888-60.352-92.544-60.352
		c-11.084,0-22.024,1.866-32.514,5.545c-26.814,9.404-48.987,30.877-59.311,57.438c-13.616,35.03-2.411,67.051,10.345,93.754
		C181.683,351.772,196.169,376.743,215.919,406.595z M201.882,220.915c13.815-14.097,30.667-21.549,48.733-21.549
		c23.292,0,46.27,12.532,59.966,32.705c13.387,19.717,15.81,43.046,6.822,65.689l-0.278,0.696
		c-14.053,34.917-35.134,67.003-55.52,98.034c-2.947,4.486-5.971,9.088-8.963,13.684c-17.959-26.117-37.997-56.768-53.987-89.209
		C183.881,290.991,170.896,252.533,201.882,220.915z"/>
	<path d="M252.925,328.5h0.005c15.047,0,29.378-6.014,40.352-16.936c10.874-10.823,16.873-25.127,16.893-40.278
		c0.021-15.505-6-30.084-16.953-41.051c-10.778-10.792-25.034-16.735-40.143-16.735h-0.13c-31.694,0-57.537,25.607-57.608,57.082
		c-0.036,15.465,5.911,29.971,16.746,40.844C223.059,322.436,237.54,328.5,252.925,328.5z M223.818,270.736
		c-0.003-15.926,13.058-28.896,29.117-28.911H253c7.882,0,14.705,2.863,20.281,8.509c5.421,5.492,8.407,12.831,8.407,20.665
		c-0.004,15.88-12.97,28.8-28.897,28.8C236.819,299.773,223.823,286.735,223.818,270.736z"/>
</g>
</svg>
