<svg xmlns="http://www.w3.org/2000/svg" viewBox="0 0 100 100" fill="#1AA160">
<g opacity="0.4" >
	<rect x="54.13" y="73.489" width="16.135" height="7.6"/>
	<rect x="54.13" y="63.057" width="16.135" height="7.6"/>
	<rect x="34.464" y="52.298" width="16.34" height="7.6"/>
	<rect x="54.13" y="52.298" width="16.135" height="7.6"/>
	<path d="M86.987,24.554L63.317,0.891H19.812
		c-2.869,0-5.216,2.347-5.216,5.216v87.784c0,2.87,2.347,5.218,5.216,5.218h61.983c2.87,0,5.218-2.348,5.218-5.218V24.551
		L86.987,24.554z M73.245,84.563H30.817V48.611h42.428V84.563z"/>
	<rect x="34.464" y="63.057" width="16.34" height="7.6"/>
	<rect x="34.464" y="73.489" width="16.34" height="7.6"/>
</g>
<path d="M63.622,2.87c0.01,5.058-0.004,10.117,0.01,15.176c0.01,4.137,2.419,6.5,6.588,6.491
	c3.538-0.007,7.078-0.101,10.614-0.005c2.058,0.056,4.138-0.298,6.179,0.224L63.344,1.092C63.76,1.634,63.622,2.268,63.622,2.87z"/>
</svg>
